<mxfile host="app.diagrams.net" modified="2023-11-16T12:30:00.984Z" agent="Mozilla/5.0 (X11; Linux x86_64; rv:109.0) Gecko/20100101 Firefox/114.0" etag="NSD-czdO8lniV9iY4y64" version="22.1.2" type="device">
  <diagram name="Page-1" id="eV9narimWrNseTlq4xcC">
    <mxGraphModel dx="3134" dy="1859" grid="1" gridSize="10" guides="1" tooltips="1" connect="1" arrows="1" fold="1" page="1" pageScale="1" pageWidth="850" pageHeight="1100" math="0" shadow="0">
      <root>
        <mxCell id="0" />
        <mxCell id="1" parent="0" />
        <mxCell id="6VFW9Ll1F0w2BIlrAhfP-20" value="" style="fillColor=none;strokeColor=#E7157B;verticalAlign=top;fontStyle=0;fontColor=#DD3522;whiteSpace=wrap;html=1;" parent="1" vertex="1">
          <mxGeometry x="-430" y="-150" width="350" height="230" as="geometry" />
        </mxCell>
        <mxCell id="vGL5eBSqH13m0lJHjZRI-5" value="AWS Cloud" style="points=[[0,0],[0.25,0],[0.5,0],[0.75,0],[1,0],[1,0.25],[1,0.5],[1,0.75],[1,1],[0.75,1],[0.5,1],[0.25,1],[0,1],[0,0.75],[0,0.5],[0,0.25]];outlineConnect=0;gradientColor=none;html=1;whiteSpace=wrap;fontSize=12;fontStyle=0;container=0;pointerEvents=0;collapsible=0;recursiveResize=0;shape=mxgraph.aws4.group;grIcon=mxgraph.aws4.group_aws_cloud_alt;strokeColor=#232F3E;fillColor=none;verticalAlign=top;align=left;spacingLeft=30;fontColor=#232F3E;dashed=0;" parent="1" vertex="1">
          <mxGeometry x="-1010" y="-180" width="940" height="600" as="geometry" />
        </mxCell>
        <mxCell id="6VFW9Ll1F0w2BIlrAhfP-8" value="" style="sketch=0;points=[[0,0,0],[0.25,0,0],[0.5,0,0],[0.75,0,0],[1,0,0],[0,1,0],[0.25,1,0],[0.5,1,0],[0.75,1,0],[1,1,0],[0,0.25,0],[0,0.5,0],[0,0.75,0],[1,0.25,0],[1,0.5,0],[1,0.75,0]];points=[[0,0,0],[0.25,0,0],[0.5,0,0],[0.75,0,0],[1,0,0],[0,1,0],[0.25,1,0],[0.5,1,0],[0.75,1,0],[1,1,0],[0,0.25,0],[0,0.5,0],[0,0.75,0],[1,0.25,0],[1,0.5,0],[1,0.75,0]];outlineConnect=0;fontColor=#232F3E;fillColor=#E7157B;strokeColor=#ffffff;dashed=0;verticalLabelPosition=bottom;verticalAlign=top;align=center;html=1;fontSize=12;fontStyle=0;aspect=fixed;shape=mxgraph.aws4.resourceIcon;resIcon=mxgraph.aws4.cloudwatch_2;" parent="1" vertex="1">
          <mxGeometry x="-300" y="-150" width="90" height="90" as="geometry" />
        </mxCell>
        <mxCell id="vGL5eBSqH13m0lJHjZRI-17" value="Private subnet" style="points=[[0,0],[0.25,0],[0.5,0],[0.75,0],[1,0],[1,0.25],[1,0.5],[1,0.75],[1,1],[0.75,1],[0.5,1],[0.25,1],[0,1],[0,0.75],[0,0.5],[0,0.25]];outlineConnect=0;gradientColor=none;html=1;whiteSpace=wrap;fontSize=12;fontStyle=0;container=1;pointerEvents=0;collapsible=0;recursiveResize=0;shape=mxgraph.aws4.group;grIcon=mxgraph.aws4.group_security_group;grStroke=0;strokeColor=#00A4A6;fillColor=#E6F6F7;verticalAlign=top;align=left;spacingLeft=30;fontColor=#147EBA;dashed=0;" parent="1" vertex="1">
          <mxGeometry x="-990" y="160" width="160" height="240" as="geometry" />
        </mxCell>
        <mxCell id="vGL5eBSqH13m0lJHjZRI-4" value="VPC" style="points=[[0,0],[0.25,0],[0.5,0],[0.75,0],[1,0],[1,0.25],[1,0.5],[1,0.75],[1,1],[0.75,1],[0.5,1],[0.25,1],[0,1],[0,0.75],[0,0.5],[0,0.25]];outlineConnect=0;gradientColor=none;html=1;whiteSpace=wrap;fontSize=12;fontStyle=0;container=0;pointerEvents=0;collapsible=0;recursiveResize=0;shape=mxgraph.aws4.group;grIcon=mxgraph.aws4.group_aws_cloud;strokeColor=#8C4FFF;fillColor=none;verticalAlign=top;align=left;spacingLeft=30;fontColor=#8C4FFF;dashed=0;" parent="1" vertex="1">
          <mxGeometry x="-1000" y="-150" width="560" height="560" as="geometry" />
        </mxCell>
        <mxCell id="vGL5eBSqH13m0lJHjZRI-26" value="User" style="shape=umlActor;verticalLabelPosition=bottom;verticalAlign=top;html=1;outlineConnect=0;" parent="1" vertex="1">
          <mxGeometry x="-580" y="-305" width="40" height="70" as="geometry" />
        </mxCell>
        <mxCell id="vGL5eBSqH13m0lJHjZRI-14" value="Private subnet" style="points=[[0,0],[0.25,0],[0.5,0],[0.75,0],[1,0],[1,0.25],[1,0.5],[1,0.75],[1,1],[0.75,1],[0.5,1],[0.25,1],[0,1],[0,0.75],[0,0.5],[0,0.25]];outlineConnect=0;gradientColor=none;html=1;whiteSpace=wrap;fontSize=12;fontStyle=0;container=1;pointerEvents=0;collapsible=0;recursiveResize=0;shape=mxgraph.aws4.group;grIcon=mxgraph.aws4.group_security_group;grStroke=0;strokeColor=#00A4A6;fillColor=#E6F6F7;verticalAlign=top;align=left;spacingLeft=30;fontColor=#147EBA;dashed=0;" parent="1" vertex="1">
          <mxGeometry x="-820" y="160" width="370" height="240" as="geometry" />
        </mxCell>
        <mxCell id="vGL5eBSqH13m0lJHjZRI-15" value="Public subnet" style="points=[[0,0],[0.25,0],[0.5,0],[0.75,0],[1,0],[1,0.25],[1,0.5],[1,0.75],[1,1],[0.75,1],[0.5,1],[0.25,1],[0,1],[0,0.75],[0,0.5],[0,0.25]];outlineConnect=0;gradientColor=none;html=1;whiteSpace=wrap;fontSize=12;fontStyle=0;container=1;pointerEvents=0;collapsible=0;recursiveResize=0;shape=mxgraph.aws4.group;grIcon=mxgraph.aws4.group_security_group;grStroke=0;strokeColor=#7AA116;fillColor=#F2F6E8;verticalAlign=top;align=left;spacingLeft=30;fontColor=#248814;dashed=0;" parent="1" vertex="1">
          <mxGeometry x="-820" y="-80" width="370" height="240" as="geometry" />
        </mxCell>
        <mxCell id="vGL5eBSqH13m0lJHjZRI-7" value="" style="sketch=0;points=[[0,0,0],[0.25,0,0],[0.5,0,0],[0.75,0,0],[1,0,0],[0,1,0],[0.25,1,0],[0.5,1,0],[0.75,1,0],[1,1,0],[0,0.25,0],[0,0.5,0],[0,0.75,0],[1,0.25,0],[1,0.5,0],[1,0.75,0]];outlineConnect=0;fontColor=#232F3E;fillColor=#C925D1;strokeColor=#ffffff;dashed=0;verticalLabelPosition=bottom;verticalAlign=top;align=center;html=1;fontSize=12;fontStyle=0;aspect=fixed;shape=mxgraph.aws4.resourceIcon;resIcon=mxgraph.aws4.rds;" parent="1" vertex="1">
          <mxGeometry x="-690" y="226" width="104" height="104" as="geometry" />
        </mxCell>
        <mxCell id="vGL5eBSqH13m0lJHjZRI-9" value="RDS Instance" style="text;html=1;strokeColor=none;fillColor=none;fontColor=#C925D1;align=center;verticalAlign=middle;whiteSpace=wrap;rounded=0;fontSize=20;" parent="1" vertex="1">
          <mxGeometry x="-748" y="298" width="220" height="110" as="geometry" />
        </mxCell>
        <mxCell id="vGL5eBSqH13m0lJHjZRI-10" value="" style="sketch=0;points=[[0,0,0],[0.25,0,0],[0.5,0,0],[0.75,0,0],[1,0,0],[0,1,0],[0.25,1,0],[0.5,1,0],[0.75,1,0],[1,1,0],[0,0.25,0],[0,0.5,0],[0,0.75,0],[1,0.25,0],[1,0.5,0],[1,0.75,0]];outlineConnect=0;fontColor=#232F3E;fillColor=#ED7100;strokeColor=#ffffff;dashed=0;verticalLabelPosition=bottom;verticalAlign=top;align=center;html=1;fontSize=12;fontStyle=0;aspect=fixed;shape=mxgraph.aws4.resourceIcon;resIcon=mxgraph.aws4.ec2;" parent="1" vertex="1">
          <mxGeometry x="-685" y="-12" width="100" height="100" as="geometry" />
        </mxCell>
        <mxCell id="vGL5eBSqH13m0lJHjZRI-11" value="Bastion Host" style="text;html=1;strokeColor=none;fillColor=none;fontColor=#ED7100;align=center;verticalAlign=middle;whiteSpace=wrap;rounded=0;fontSize=20;" parent="1" vertex="1">
          <mxGeometry x="-745" y="55" width="220" height="110" as="geometry" />
        </mxCell>
        <mxCell id="vGL5eBSqH13m0lJHjZRI-35" style="edgeStyle=orthogonalEdgeStyle;rounded=0;orthogonalLoop=1;jettySize=auto;html=1;startArrow=classic;startFill=1;endArrow=none;endFill=0;" parent="1" edge="1">
          <mxGeometry relative="1" as="geometry">
            <mxPoint x="-565" y="-210" as="targetPoint" />
            <mxPoint x="-580" y="35.02999999999997" as="sourcePoint" />
            <Array as="points">
              <mxPoint x="-565" y="35.02999999999997" />
            </Array>
          </mxGeometry>
        </mxCell>
        <mxCell id="vGL5eBSqH13m0lJHjZRI-33" style="edgeStyle=orthogonalEdgeStyle;rounded=0;orthogonalLoop=1;jettySize=auto;html=1;" parent="1" edge="1">
          <mxGeometry relative="1" as="geometry">
            <mxPoint x="-554" y="-210" as="targetPoint" />
            <mxPoint x="-580" y="45" as="sourcePoint" />
            <Array as="points">
              <mxPoint x="-554" y="45" />
            </Array>
          </mxGeometry>
        </mxCell>
        <mxCell id="vGL5eBSqH13m0lJHjZRI-36" value="SSH Port 22" style="text;html=1;strokeColor=none;fillColor=none;align=center;verticalAlign=middle;whiteSpace=wrap;rounded=0;fontSize=15;" parent="1" vertex="1">
          <mxGeometry x="-590" y="45" width="110" height="30" as="geometry" />
        </mxCell>
        <mxCell id="vGL5eBSqH13m0lJHjZRI-22" value="Database Port" style="text;html=1;strokeColor=none;fillColor=none;align=center;verticalAlign=middle;whiteSpace=wrap;rounded=0;fontSize=15;" parent="1" vertex="1">
          <mxGeometry x="-762" y="196" width="120" height="30" as="geometry" />
        </mxCell>
        <mxCell id="vGL5eBSqH13m0lJHjZRI-21" value="" style="endArrow=classic;html=1;rounded=0;" parent="1" edge="1">
          <mxGeometry width="50" height="50" relative="1" as="geometry">
            <mxPoint x="-632.5" y="216" as="sourcePoint" />
            <mxPoint x="-632.5" y="126" as="targetPoint" />
          </mxGeometry>
        </mxCell>
        <mxCell id="vGL5eBSqH13m0lJHjZRI-20" value="" style="endArrow=classic;html=1;rounded=0;" parent="1" edge="1">
          <mxGeometry width="50" height="50" relative="1" as="geometry">
            <mxPoint x="-642" y="126" as="sourcePoint" />
            <mxPoint x="-642" y="216" as="targetPoint" />
          </mxGeometry>
        </mxCell>
        <mxCell id="6VFW9Ll1F0w2BIlrAhfP-1" value="" style="ellipse;whiteSpace=wrap;html=1;aspect=fixed;fillColor=none;strokeColor=#E7157B;flipH=0;" parent="1" vertex="1">
          <mxGeometry x="-662" y="146" width="50" height="50" as="geometry" />
        </mxCell>
        <mxCell id="6VFW9Ll1F0w2BIlrAhfP-3" value="" style="sketch=0;outlineConnect=0;fontColor=#232F3E;gradientColor=none;fillColor=#E7157B;strokeColor=none;dashed=0;verticalLabelPosition=bottom;verticalAlign=top;align=center;html=1;fontSize=12;fontStyle=0;aspect=fixed;pointerEvents=1;shape=mxgraph.aws4.cloudwatch_logs;flipH=0;" parent="1" vertex="1">
          <mxGeometry x="-622" y="186" width="30" height="20" as="geometry" />
        </mxCell>
        <mxCell id="6VFW9Ll1F0w2BIlrAhfP-11" value="" style="group" parent="1" vertex="1" connectable="0">
          <mxGeometry x="-584" y="-72" width="70" height="60" as="geometry" />
        </mxCell>
        <mxCell id="6VFW9Ll1F0w2BIlrAhfP-9" value="" style="ellipse;whiteSpace=wrap;html=1;aspect=fixed;fillColor=none;strokeColor=#E7157B;flipH=0;" parent="6VFW9Ll1F0w2BIlrAhfP-11" vertex="1">
          <mxGeometry width="50" height="50" as="geometry" />
        </mxCell>
        <mxCell id="6VFW9Ll1F0w2BIlrAhfP-10" value="" style="sketch=0;outlineConnect=0;fontColor=#232F3E;gradientColor=none;fillColor=#E7157B;strokeColor=none;dashed=0;verticalLabelPosition=bottom;verticalAlign=top;align=center;html=1;fontSize=12;fontStyle=0;aspect=fixed;pointerEvents=1;shape=mxgraph.aws4.cloudwatch_logs;flipH=0;" parent="6VFW9Ll1F0w2BIlrAhfP-11" vertex="1">
          <mxGeometry x="40" y="40" width="30" height="20" as="geometry" />
        </mxCell>
        <mxCell id="vGL5eBSqH13m0lJHjZRI-24" value="" style="endArrow=classic;html=1;rounded=0;dashed=1;" parent="1" edge="1">
          <mxGeometry width="50" height="50" relative="1" as="geometry">
            <mxPoint x="-709.9999999999991" y="279.6421212121208" as="sourcePoint" />
            <mxPoint x="-900" y="280" as="targetPoint" />
          </mxGeometry>
        </mxCell>
        <mxCell id="vGL5eBSqH13m0lJHjZRI-25" value="AWS Multi-AZ RDS requirement" style="text;html=1;strokeColor=none;fillColor=none;align=center;verticalAlign=middle;whiteSpace=wrap;rounded=0;fontSize=15;" parent="1" vertex="1">
          <mxGeometry x="-890" y="290" width="180" height="30" as="geometry" />
        </mxCell>
        <mxCell id="6VFW9Ll1F0w2BIlrAhfP-14" value="CloudWatch" style="text;html=1;strokeColor=none;fillColor=none;align=center;verticalAlign=middle;whiteSpace=wrap;rounded=0;fontSize=20;fontColor=#E7157B;" parent="1" vertex="1">
          <mxGeometry x="-285" y="-50" width="60" height="30" as="geometry" />
        </mxCell>
        <mxCell id="6VFW9Ll1F0w2BIlrAhfP-18" value="" style="group" parent="1" vertex="1" connectable="0">
          <mxGeometry x="-215" width="125" height="65" as="geometry" />
        </mxCell>
        <mxCell id="6VFW9Ll1F0w2BIlrAhfP-16" value="" style="sketch=0;outlineConnect=0;fontColor=#232F3E;gradientColor=none;fillColor=#E7157B;strokeColor=none;dashed=0;verticalLabelPosition=bottom;verticalAlign=top;align=center;html=1;fontSize=12;fontStyle=0;aspect=fixed;pointerEvents=1;shape=mxgraph.aws4.alarm;" parent="6VFW9Ll1F0w2BIlrAhfP-18" vertex="1">
          <mxGeometry x="40.78014184397163" width="34.78843103809438" height="34.78843103809438" as="geometry" />
        </mxCell>
        <mxCell id="6VFW9Ll1F0w2BIlrAhfP-17" value="SSH Traffic State" style="text;html=1;strokeColor=none;fillColor=none;align=center;verticalAlign=middle;whiteSpace=wrap;rounded=0;fontSize=15;fontColor=#E7157B;" parent="6VFW9Ll1F0w2BIlrAhfP-18" vertex="1">
          <mxGeometry y="40.316455696202546" width="125" height="24.683544303797486" as="geometry" />
        </mxCell>
        <mxCell id="6VFW9Ll1F0w2BIlrAhfP-19" value="" style="group" parent="1" vertex="1" connectable="0">
          <mxGeometry x="-420" width="125" height="65" as="geometry" />
        </mxCell>
        <mxCell id="6VFW9Ll1F0w2BIlrAhfP-13" value="" style="sketch=0;outlineConnect=0;fontColor=#232F3E;gradientColor=none;fillColor=#E7157B;strokeColor=none;dashed=0;verticalLabelPosition=bottom;verticalAlign=top;align=center;html=1;fontSize=12;fontStyle=0;aspect=fixed;pointerEvents=1;shape=mxgraph.aws4.alarm;" parent="6VFW9Ll1F0w2BIlrAhfP-19" vertex="1">
          <mxGeometry x="40.78014184397163" width="32.4549604630309" height="32.4549604630309" as="geometry" />
        </mxCell>
        <mxCell id="6VFW9Ll1F0w2BIlrAhfP-15" value="Database Traffic State" style="text;html=1;strokeColor=none;fillColor=none;align=center;verticalAlign=middle;whiteSpace=wrap;rounded=0;fontSize=15;fontColor=#E7157B;" parent="6VFW9Ll1F0w2BIlrAhfP-19" vertex="1">
          <mxGeometry y="42.58620689655173" width="125" height="22.41379310344827" as="geometry" />
        </mxCell>
        <mxCell id="yeb1CqhpnmUXUb2Ym-3P-17" value="" style="sketch=0;points=[[0,0,0],[0.25,0,0],[0.5,0,0],[0.75,0,0],[1,0,0],[0,1,0],[0.25,1,0],[0.5,1,0],[0.75,1,0],[1,1,0],[0,0.25,0],[0,0.5,0],[0,0.75,0],[1,0.25,0],[1,0.5,0],[1,0.75,0]];outlineConnect=0;fontColor=#232F3E;fillColor=#ED7100;strokeColor=#ffffff;dashed=0;verticalLabelPosition=bottom;verticalAlign=top;align=center;html=1;fontSize=12;fontStyle=0;aspect=fixed;shape=mxgraph.aws4.resourceIcon;resIcon=mxgraph.aws4.lambda;" parent="1" vertex="1">
          <mxGeometry x="-394.5" y="150" width="68" height="68" as="geometry" />
        </mxCell>
        <mxCell id="yeb1CqhpnmUXUb2Ym-3P-18" value="" style="sketch=0;points=[[0,0,0],[0.25,0,0],[0.5,0,0],[0.75,0,0],[1,0,0],[0,1,0],[0.25,1,0],[0.5,1,0],[0.75,1,0],[1,1,0],[0,0.25,0],[0,0.5,0],[0,0.75,0],[1,0.25,0],[1,0.5,0],[1,0.75,0]];outlineConnect=0;fontColor=#232F3E;fillColor=#ED7100;strokeColor=#ffffff;dashed=0;verticalLabelPosition=bottom;verticalAlign=top;align=center;html=1;fontSize=12;fontStyle=0;aspect=fixed;shape=mxgraph.aws4.resourceIcon;resIcon=mxgraph.aws4.lambda;" parent="1" vertex="1">
          <mxGeometry x="-394.5" y="290" width="68" height="68" as="geometry" />
        </mxCell>
        <mxCell id="yeb1CqhpnmUXUb2Ym-3P-21" value="" style="points=[[0,0],[0.25,0],[0.5,0],[0.75,0],[1,0],[1,0.25],[1,0.5],[1,0.75],[1,1],[0.75,1],[0.5,1],[0.25,1],[0,1],[0,0.75],[0,0.5],[0,0.25]];outlineConnect=0;gradientColor=none;html=1;whiteSpace=wrap;fontSize=12;fontStyle=0;container=1;pointerEvents=0;collapsible=0;recursiveResize=0;shape=mxgraph.aws4.group;grIcon=mxgraph.aws4.group_iot_greengrass;strokeColor=#00F5A5;fillColor=none;verticalAlign=top;align=left;spacingLeft=30;fontColor=#00F5A5;dashed=0;" parent="1" vertex="1">
          <mxGeometry x="-290" y="98" width="210" height="302" as="geometry" />
        </mxCell>
        <mxCell id="yeb1CqhpnmUXUb2Ym-3P-15" value="" style="sketch=0;points=[[0,0,0],[0.25,0,0],[0.5,0,0],[0.75,0,0],[1,0,0],[0,1,0],[0.25,1,0],[0.5,1,0],[0.75,1,0],[1,1,0],[0,0.25,0],[0,0.5,0],[0,0.75,0],[1,0.25,0],[1,0.5,0],[1,0.75,0]];outlineConnect=0;fontColor=#232F3E;fillColor=#00F5A5;strokeColor=#ffffff;dashed=0;verticalLabelPosition=bottom;verticalAlign=top;align=center;html=1;fontSize=12;fontStyle=0;aspect=fixed;shape=mxgraph.aws4.resourceIcon;resIcon=mxgraph.aws4.eventbridge;" parent="yeb1CqhpnmUXUb2Ym-3P-21" vertex="1">
          <mxGeometry width="30" height="30" as="geometry" />
        </mxCell>
        <mxCell id="yeb1CqhpnmUXUb2Ym-3P-28" value="" style="group" parent="yeb1CqhpnmUXUb2Ym-3P-21" vertex="1" connectable="0">
          <mxGeometry x="20.779999999999973" y="52" width="80" height="100" as="geometry" />
        </mxCell>
        <mxCell id="yeb1CqhpnmUXUb2Ym-3P-23" value="" style="sketch=0;outlineConnect=0;fontColor=#232F3E;gradientColor=none;fillColor=#00F5A5;strokeColor=none;dashed=0;verticalLabelPosition=bottom;verticalAlign=top;align=center;html=1;fontSize=12;fontStyle=0;aspect=fixed;pointerEvents=1;shape=mxgraph.aws4.event;" parent="yeb1CqhpnmUXUb2Ym-3P-28" vertex="1">
          <mxGeometry x="10" width="60" height="60" as="geometry" />
        </mxCell>
        <mxCell id="yeb1CqhpnmUXUb2Ym-3P-24" value="Scheduled Event" style="text;html=1;strokeColor=none;fillColor=none;align=center;verticalAlign=middle;whiteSpace=wrap;rounded=0;fontColor=#00F5A5;fontSize=15;" parent="yeb1CqhpnmUXUb2Ym-3P-28" vertex="1">
          <mxGeometry y="70" width="80" height="30" as="geometry" />
        </mxCell>
        <mxCell id="yeb1CqhpnmUXUb2Ym-3P-27" value="" style="group" parent="yeb1CqhpnmUXUb2Ym-3P-21" vertex="1" connectable="0">
          <mxGeometry x="59.22" y="192" width="150.78" height="100" as="geometry" />
        </mxCell>
        <mxCell id="yeb1CqhpnmUXUb2Ym-3P-25" value="" style="sketch=0;outlineConnect=0;fontColor=#232F3E;gradientColor=none;fillColor=#00F5A5;strokeColor=none;dashed=0;verticalLabelPosition=bottom;verticalAlign=top;align=center;html=1;fontSize=12;fontStyle=0;aspect=fixed;pointerEvents=1;shape=mxgraph.aws4.event;" parent="yeb1CqhpnmUXUb2Ym-3P-27" vertex="1">
          <mxGeometry x="45.39" width="60" height="60" as="geometry" />
        </mxCell>
        <mxCell id="yeb1CqhpnmUXUb2Ym-3P-26" value="State Change Event" style="text;html=1;strokeColor=none;fillColor=none;align=center;verticalAlign=middle;whiteSpace=wrap;rounded=0;fontColor=#00F5A5;fontSize=15;" parent="yeb1CqhpnmUXUb2Ym-3P-27" vertex="1">
          <mxGeometry y="70" width="150.78" height="30" as="geometry" />
        </mxCell>
        <mxCell id="yeb1CqhpnmUXUb2Ym-3P-34" value="" style="endArrow=classic;html=1;rounded=0;" parent="yeb1CqhpnmUXUb2Ym-3P-21" edge="1">
          <mxGeometry width="50" height="50" relative="1" as="geometry">
            <mxPoint x="134.18" y="-28" as="sourcePoint" />
            <mxPoint x="134.18" y="182" as="targetPoint" />
          </mxGeometry>
        </mxCell>
        <mxCell id="yeb1CqhpnmUXUb2Ym-3P-35" value="" style="endArrow=classic;html=1;rounded=0;" parent="yeb1CqhpnmUXUb2Ym-3P-21" edge="1">
          <mxGeometry width="50" height="50" relative="1" as="geometry">
            <mxPoint x="23" y="88" as="sourcePoint" />
            <mxPoint x="-30" y="88" as="targetPoint" />
          </mxGeometry>
        </mxCell>
        <mxCell id="yeb1CqhpnmUXUb2Ym-3P-37" value="" style="endArrow=classic;html=1;rounded=0;" parent="yeb1CqhpnmUXUb2Ym-3P-21" edge="1">
          <mxGeometry width="50" height="50" relative="1" as="geometry">
            <mxPoint x="97" y="224" as="sourcePoint" />
            <mxPoint x="-30" y="224" as="targetPoint" />
          </mxGeometry>
        </mxCell>
        <mxCell id="vGL5eBSqH13m0lJHjZRI-12" value="Availability Zone A" style="fillColor=none;strokeColor=#147EBA;dashed=1;verticalAlign=top;fontStyle=0;fontColor=#147EBA;whiteSpace=wrap;html=1;" parent="1" vertex="1">
          <mxGeometry x="-820" y="-116.5" width="370" height="516.5" as="geometry" />
        </mxCell>
        <mxCell id="yeb1CqhpnmUXUb2Ym-3P-29" value="Start Lambda" style="text;html=1;strokeColor=none;fillColor=none;align=center;verticalAlign=middle;whiteSpace=wrap;rounded=0;fontColor=#ED7100;fontSize=15;" parent="1" vertex="1">
          <mxGeometry x="-410.5" y="368" width="100" height="30" as="geometry" />
        </mxCell>
        <mxCell id="yeb1CqhpnmUXUb2Ym-3P-30" value="Stop Lambda" style="text;html=1;strokeColor=none;fillColor=none;align=center;verticalAlign=middle;whiteSpace=wrap;rounded=0;fontColor=#ED7100;fontSize=15;" parent="1" vertex="1">
          <mxGeometry x="-410.5" y="226" width="100" height="30" as="geometry" />
        </mxCell>
        <mxCell id="yeb1CqhpnmUXUb2Ym-3P-33" value="" style="endArrow=classic;html=1;rounded=0;" parent="1" edge="1">
          <mxGeometry width="50" height="50" relative="1" as="geometry">
            <mxPoint x="-360.86" y="145" as="sourcePoint" />
            <mxPoint x="-360.72" y="75" as="targetPoint" />
          </mxGeometry>
        </mxCell>
        <mxCell id="vGL5eBSqH13m0lJHjZRI-13" value="&lt;div&gt;Availability Zone B&lt;/div&gt;" style="fillColor=none;strokeColor=#147EBA;dashed=1;verticalAlign=top;fontStyle=0;fontColor=#147EBA;whiteSpace=wrap;html=1;" parent="1" vertex="1">
          <mxGeometry x="-990" y="-116.5" width="160" height="516.5" as="geometry" />
        </mxCell>
        <mxCell id="yeb1CqhpnmUXUb2Ym-3P-36" value="&lt;div&gt;Checks&lt;/div&gt;&lt;div&gt;State&lt;br&gt;&lt;/div&gt;" style="text;html=1;strokeColor=none;fillColor=none;align=center;verticalAlign=middle;whiteSpace=wrap;rounded=0;fontSize=15;" parent="1" vertex="1">
          <mxGeometry x="-430" y="98" width="60" height="30" as="geometry" />
        </mxCell>
        <mxCell id="yeb1CqhpnmUXUb2Ym-3P-38" style="edgeStyle=orthogonalEdgeStyle;rounded=0;orthogonalLoop=1;jettySize=auto;html=1;" parent="1" edge="1">
          <mxGeometry relative="1" as="geometry">
            <mxPoint x="-401" y="186" as="sourcePoint" />
            <mxPoint x="-580" y="267" as="targetPoint" />
            <Array as="points">
              <mxPoint x="-500" y="186" />
              <mxPoint x="-500" y="267" />
            </Array>
          </mxGeometry>
        </mxCell>
        <mxCell id="yeb1CqhpnmUXUb2Ym-3P-39" style="edgeStyle=orthogonalEdgeStyle;rounded=0;orthogonalLoop=1;jettySize=auto;html=1;entryX=0.649;entryY=0.806;entryDx=0;entryDy=0;entryPerimeter=0;" parent="1" edge="1">
          <mxGeometry relative="1" as="geometry">
            <mxPoint x="-401" y="322.2" as="sourcePoint" />
            <mxPoint x="-580.0000000000001" y="290" as="targetPoint" />
            <Array as="points">
              <mxPoint x="-500" y="322" />
              <mxPoint x="-500" y="290" />
              <mxPoint x="-580" y="290" />
            </Array>
          </mxGeometry>
        </mxCell>
      </root>
    </mxGraphModel>
  </diagram>
</mxfile>
